<svg width="1424" height="996" viewBox="0 0 1424 996" fill="none" xmlns="http://www.w3.org/2000/svg">
<path d="M850.797 371.202C173.861 619.105 492.877 447.479 0.504272 1.25397V995.254H1422.69C1402.07 836.032 1305.98 995.254 1193.16 687.755C1154.51 582.414 1022.28 308.401 850.797 371.202Z" fill="#262020" stroke="#0F0F0F"/>
<path d="M791.633 477.84C161.799 683.381 458.617 541.083 0.504272 171.109V995.254H1323.73C1304.55 863.24 1215.14 995.254 1110.17 740.3C1074.21 652.961 951.187 425.771 791.633 477.84Z" fill="#3C2E2E" stroke="#0F0F0F"/>
<path d="M702.21 593.006C143.567 752.798 406.836 642.173 0.504272 354.547V995.254H1174.17C1157.15 892.623 1077.85 995.254 984.743 797.048C952.847 729.148 843.729 552.527 702.21 593.006Z" fill="#4D3939" stroke="#0F0F0F"/>
</svg>
